# xmcd
#
# Track frame offsets: 
#        150
#        16553
#        41437
#        59809
#        78780
#        94975
#        114637
#        126704
#        148022
#        166894
#        179649
#        199982
#        226225
#
# Disc length: 3244 seconds
#
# Revision: 0
# Processed by: cddbd v1.5.2PL0 Copyright (c) Steve Scherf et al.
# Submitted via: ExactAudioCopyFreeDBPlugin 1.0
#
DISCID=b60caa0d
DTITLE=Riverboat Records - Brexit Blues
DYEAR=2016
DGENRE=Blues
TTITLE0=Wieczerza (The Supper) - Chlopcy Kontra Basia
TTITLE1=Evo Scru -  Söndörgo
TTITLE2=Erhetai Heimonas (Winter Is Coming) - Kristi Stassinopoulou and 
TTITLE2=Stathis Kalyviotis
TTITLE3=Hora De La Munte - She'koyokh
TTITLE4=Blues Run the Game - John Renbourn and Wizz Jones
TTITLE5=Polonäs Från Sexdrega - Fatdog
TTITLE6=Pal O Foro - Bela Lakato and The Gypsy Youth Project
TTITLE7=Rose - Faith i Branko
TTITLE8=Quedate con tus Anillos - Calaita Flamenco Son
TTITLE9=Gkiouzel - Dimitris Mistakidis
TTITLE10=Air: An Páistín Fionn (The Fair-Haired Child) - Aidan Coffey
TTITLE11=Pannonian Blues - Boris Kovaè and La Campanella
TTITLE12=Jarnana - Olcay Bayir
EXTD=
EXTT0=
EXTT1=
EXTT2=
EXTT3=
EXTT4=
EXTT5=
EXTT6=
EXTT7=
EXTT8=
EXTT9=
EXTT10=
EXTT11=
EXTT12=
PLAYORDER=
